# xmcd
#
# Track frame offsets:
# 183
# 10045
# 23170
# 35768
# 57185
# 83365
# 94298
# 106485
# 139875
# 158763
# 181428
# 192608
# 203323
# 216218
# 228558
#
# Disc length: 3231 seconds
#
#
# Revision: 2
# Processed by: cddbd v1.5.1PL2 Copyright (c) Steve Scherf et al.
# Submitted via: FreeRIP 2.945 
#
DISCID=c50c9d0f
DTITLE=Varios - This is Blues
DYEAR=1900
DGENRE=
TTITLE0=Love you like a woman =Koko Taylor
TTITLE1=Mannish Boy =Muddy Waters
TTITLE2=Bad Girl Blues =Rocky Hill and Johnny Winters
TTITLE3=Blues Latino =Vargas Blues Band
TTITLE4=Angel of Mercy =Albert King
TTITLE5=Little Red Rooster =Howlin'Wolf
TTITLE6=Ride in my new car =Big Joe Williams
TTITLE7=Tupelo =John Lee Hooker
TTITLE8=Blues runs down my leg =Mick Taylor and Tonky Blues Band
TTITLE9=Whole Lotta Shakin'goin'on =Jerry Lee Lewis
TTITLE10=Same =Bo Diddley
TTITLE11=That's all right Mama =Arthur "Big Boy" Crudup
TTITLE12=Too many cooks =Robert Cray
TTITLE13=Blue Monday =Fats Domino
TTITLE14=In the wee wee hours =Chuck Berry
EXTD=
EXTT0=
EXTT1=
EXTT2=
EXTT3=
EXTT4=
EXTT5=
EXTT6=
EXTT7=
EXTT8=
EXTT9=
EXTT10=
EXTT11=
EXTT12=
EXTT13=
EXTT14=
PLAYORDER=
